<?xml version="1.0" encoding="UTF-8" standalone="no"?>
<svg
   xmlns:dc="http://purl.org/dc/elements/1.1/"
   xmlns:cc="http://creativecommons.org/ns#"
   xmlns:rdf="http://www.w3.org/1999/02/22-rdf-syntax-ns#"
   xmlns:svg="http://www.w3.org/2000/svg"
   xmlns="http://www.w3.org/2000/svg"
   xmlns:sodipodi="http://sodipodi.sourceforge.net/DTD/sodipodi-0.dtd"
   xmlns:inkscape="http://www.inkscape.org/namespaces/inkscape"
   width="34.98"
   height="34.98"
   viewBox="0 0 34.98 34.98"
   version="1.1"
   id="svg60"
   sodipodi:docname="search.svg"
   inkscape:version="0.92.2 5c3e80d, 2017-08-06">
  <metadata
     id="metadata66">
    <rdf:RDF>
      <cc:Work
         rdf:about="">
        <dc:format>image/svg+xml</dc:format>
        <dc:type
           rdf:resource="http://purl.org/dc/dcmitype/StillImage" />
        <dc:title></dc:title>
      </cc:Work>
    </rdf:RDF>
  </metadata>
  <defs
     id="defs64" />
  <sodipodi:namedview
     pagecolor="#ffffff"
     bordercolor="#666666"
     borderopacity="1"
     objecttolerance="10"
     gridtolerance="10"
     guidetolerance="10"
     inkscape:pageopacity="0"
     inkscape:pageshadow="2"
     inkscape:window-width="1916"
     inkscape:window-height="1055"
     id="namedview62"
     showgrid="false"
     fit-margin-top="0"
     fit-margin-left="0"
     fit-margin-right="0"
     fit-margin-bottom="0"
     inkscape:zoom="17.916667"
     inkscape:cx="8.2883721"
     inkscape:cy="16.98"
     inkscape:window-x="0"
     inkscape:window-y="0"
     inkscape:window-maximized="0"
     inkscape:current-layer="svg60" />
  <path
     d="M 25,22 H 23.41 L 22.86,21.45 C 24.82,19.18 26,16.23 26,13 26,5.82 20.18,0 13,0 5.82,0 0,5.82 0,13 c 0,7.18 5.82,13 13,13 3.23,0 6.18,-1.18 8.45,-3.13 L 22,23.42 V 25 L 32,34.98 34.98,32 Z M 13,22 C 8.03,22 4,17.97 4,13 4,8.03 8.03,4 13,4 c 4.97,0 9,4.03 9,9 0,4.97 -4.03,9 -9,9 z"
     id="path58"
     style="fill:#a2a2a2;fill-opacity:1"
     inkscape:connector-curvature="0" />
</svg>
